<svg width="103" height="28" viewBox="0 0 103 28" fill="none" xmlns="http://www.w3.org/2000/svg">
<path d="M0.47 22V0.549999H5.81L12.17 11.32L13.64 14.05H13.7C13.66 12.33 13.64 11.22 13.64 10.72V0.549999H18.83V22H13.49L7.19 11.38L5.66 8.5H5.6C5.64 10.34 5.66 11.51 5.66 12.01V22H0.47ZM28.3688 22.45C25.8888 22.45 23.8988 21.69 22.3988 20.17C20.9188 18.63 20.1788 16.67 20.1788 14.29C20.1788 11.97 20.9088 10.04 22.3688 8.5C23.8488 6.96 25.7488 6.19 28.0688 6.19C30.1688 6.19 31.9188 6.83 33.3188 8.11C35.1588 9.79 36.0588 12.28 36.0188 15.58H24.9788C25.1388 16.64 25.5088 17.47 26.0888 18.07C26.6688 18.65 27.4488 18.94 28.4288 18.94C29.6888 18.94 30.5388 18.43 30.9788 17.41H35.7488C35.3888 18.89 34.5288 20.1 33.1688 21.04C31.8288 21.98 30.2288 22.45 28.3688 22.45ZM25.0088 12.67H31.0688C30.9888 11.75 30.6788 11.02 30.1388 10.48C29.6188 9.94 28.9588 9.67 28.1588 9.67C26.4188 9.67 25.3688 10.67 25.0088 12.67ZM44.1959 27.31C42.0559 27.31 40.3259 26.88 39.0059 26.02C37.7059 25.18 36.9359 23.96 36.6959 22.36H41.4359C41.7759 23.36 42.6759 23.86 44.1359 23.86C46.0959 23.86 47.0759 22.88 47.0759 20.92V19.39H46.9559C45.9159 20.57 44.6059 21.16 43.0259 21.16C41.1859 21.16 39.6159 20.51 38.3159 19.21C37.0159 17.91 36.3659 16.13 36.3659 13.87C36.3659 11.61 36.9659 9.77 38.1659 8.35C39.3659 6.91 40.9159 6.19 42.8159 6.19C44.7159 6.19 46.1559 6.89 47.1359 8.29H47.1959V6.64H51.8759V20.5C51.8759 22.68 51.1959 24.38 49.8359 25.6C48.5559 26.74 46.6759 27.31 44.1959 27.31ZM44.1659 17.53C45.1859 17.53 45.9559 17.18 46.4759 16.48C47.0159 15.76 47.2859 14.83 47.2859 13.69C47.2859 12.61 47.0059 11.71 46.4459 10.99C45.9059 10.25 45.1459 9.88 44.1659 9.88C43.2459 9.88 42.5059 10.23 41.9459 10.93C41.4059 11.63 41.1359 12.56 41.1359 13.72C41.1359 14.88 41.4059 15.81 41.9459 16.51C42.5059 17.19 43.2459 17.53 44.1659 17.53ZM58.7239 17.74C59.2839 18.58 60.0839 19 61.1239 19C62.1639 19 62.9639 18.58 63.5239 17.74C64.1039 16.9 64.3939 15.77 64.3939 14.35C64.3939 12.93 64.1039 11.8 63.5239 10.96C62.9639 10.1 62.1639 9.67 61.1239 9.67C60.0839 9.67 59.2839 10.09 58.7239 10.93C58.1639 11.77 57.8839 12.91 57.8839 14.35C57.8839 15.77 58.1639 16.9 58.7239 17.74ZM67.0639 20.17C65.5639 21.71 63.5939 22.48 61.1539 22.48C58.7139 22.48 56.7339 21.71 55.2139 20.17C53.6939 18.63 52.9339 16.69 52.9339 14.35C52.9339 12.01 53.6939 10.07 55.2139 8.53C56.7339 6.99 58.7139 6.22 61.1539 6.22C63.5939 6.22 65.5639 6.99 67.0639 8.53C68.5839 10.07 69.3439 12.01 69.3439 14.35C69.3439 16.69 68.5839 18.63 67.0639 20.17ZM76.194 22.18C74.634 22.18 73.424 21.87 72.564 21.25C71.724 20.61 71.304 19.51 71.304 17.95V9.7H69.264V6.64H71.304V1.78H76.074V6.64H78.864V9.7H76.074V16.9C76.074 17.46 76.214 17.85 76.494 18.07C76.794 18.29 77.224 18.4 77.784 18.4C77.944 18.4 78.154 18.4 78.414 18.4C78.674 18.38 78.824 18.37 78.864 18.37V21.94C78.304 22.1 77.414 22.18 76.194 22.18ZM80.0216 22V6.64H84.9116V22H80.0216ZM80.0216 4.51V0.549999H84.9116V4.51H80.0216ZM91.7579 17.74C92.3179 18.58 93.1179 19 94.1579 19C95.1979 19 95.9979 18.58 96.5579 17.74C97.1379 16.9 97.4279 15.77 97.4279 14.35C97.4279 12.93 97.1379 11.8 96.5579 10.96C95.9979 10.1 95.1979 9.67 94.1579 9.67C93.1179 9.67 92.3179 10.09 91.7579 10.93C91.1979 11.77 90.9179 12.91 90.9179 14.35C90.9179 15.77 91.1979 16.9 91.7579 17.74ZM100.098 20.17C98.5979 21.71 96.6279 22.48 94.1879 22.48C91.7479 22.48 89.7679 21.71 88.2479 20.17C86.7279 18.63 85.9679 16.69 85.9679 14.35C85.9679 12.01 86.7279 10.07 88.2479 8.53C89.7679 6.99 91.7479 6.22 94.1879 6.22C96.6279 6.22 98.5979 6.99 100.098 8.53C101.618 10.07 102.378 12.01 102.378 14.35C102.378 16.69 101.618 18.63 100.098 20.17Z" fill="url(#paint0_linear_1_88)"/>
<defs>
<linearGradient id="paint0_linear_1_88" x1="-3.5" y1="18" x2="103" y2="17.5" gradientUnits="userSpaceOnUse">
<stop stop-color="#111111"/>
<stop offset="1" stop-color="#9747FF"/>
</linearGradient>
</defs>
</svg>
